PathFileType	4	(X/Y/Z)	/Users/niels/Desktop/University/Third Semester/Perception and Action/Exam/Gymnastics Motion Tracking/Code for Gym Tracking/Analyzed Data/Webcam_Backflip/id5_5_trajectory_Sports2D/id5_5_trajectory_Sports2D_px_person00.trc
DataRate	CameraRate	NumFrames	NumMarkers	Units	OrigDataRate	OrigDataStartFrame	OrigNumFrames
29.774436090225564	29.774436090225564	11	22	m	29.774436090225564	0	133
Frame#	Time	Hip			RHip			RKnee			RAnkle			RBigToe			RSmallToe			RHeel			LHip			LKnee			LAnkle			LBigToe			LSmallToe			LHeel			Neck			Head			Nose			RShoulder			RElbow			RWrist			LShoulder			LElbow			LWrist		
		X1	Y1	Z1	X2	Y2	Z2	X3	Y3	Z3	X4	Y4	Z4	X5	Y5	Z5	X6	Y6	Z6	X7	Y7	Z7	X8	Y8	Z8	X9	Y9	Z9	X10	Y10	Z10	X11	Y11	Z11	X12	Y12	Z12	X13	Y13	Z13	X14	Y14	Z14	X15	Y15	Z15	X16	Y16	Z16	X17	Y17	Z17	X18	Y18	Z18	X19	Y19	Z19	X20	Y20	Z20	X21	Y21	Z21	X22	Y22	Z22
0	0.0	0.9285437714439255	-0.6568811747838952	0.0	0.9213633397702088	-0.6550857711332035	0.0	0.953612130116028	-0.7753005409084446	0.0	0.9356977773668173	-0.9097171315876658	0.0	0.9787120614281546	-0.9419103376186245	0.0	0.9661815091215223	-0.9454945372461222	0.0	0.9231514116072775	-0.9311566348095504	0.0	0.9321283060914282	-0.6550889371507028	0.0	0.9554236402988798	-0.7735010548146821	0.0	0.9357581549655376	-0.9025621686379296	0.0	0.9787419781945682	-0.9330128559421406	0.0	0.9751252547414688	-0.9293715918375478	0.0	0.9178053441482001	-0.925792969802557	0.0	0.9499972269150196	-0.4810762327324975	0.0	1.0055310308150236	-0.4057474025150705	0.0	1.000187495512769	-0.4523742047186569	0.0	0.9374377701399337	-0.48823740169287	0.0	0.8783313756638793	-0.5312372472299596	0.0	0.8730656999753575	-0.6118051226853496	0.0	0.9482558032788478	-0.4936397879396153	0.0	0.9106856910024708	-0.5456259663753661	0.0	0.9304289015143113	-0.620798452195939	0.0
1	0.03358585858585859	0.9258183239679666	-0.65863062044723	0.0	0.9202502709167034	-0.6561117238786698	0.0	0.9606513062975177	-0.7758904077492401	0.0	0.9370095383438382	-0.9094868937405498	0.0	0.9825639601172419	-0.9398810621898591	0.0	0.969948634152722	-0.9436896592128816	0.0	0.9229472080576901	-0.9305600605408758	0.0	0.9289665673419161	-0.6561417612954689	0.0	0.9588348388754132	-0.7734291407593294	0.0	0.9366112258108517	-0.9028960755092508	0.0	0.9809651960164012	-0.9306128609366773	0.0	0.9765078870512871	-0.9266643172773034	0.0	0.9172641756823025	-0.9242361430873006	0.0	0.9505502364631511	-0.4838451877674159	0.0	1.0041747287463922	-0.40776386343783083	0.0	1.0013224630591595	-0.4547019085424994	0.0	0.939648121361954	-0.4912785893342547	0.0	0.8752763738493825	-0.5278029974257599	0.0	0.8574479161863985	-0.6047464849750268	0.0	0.9468739019331376	-0.4955587843710146	0.0	0.9054800930236991	-0.5456069350454887	0.0	0.9142434317064907	-0.6180566218322459	0.0
2	0.06717171717171717	0.922994691123664	-0.6621060340368765	0.0	0.9189774132148679	-0.6590398668977391	0.0	0.9676194556836204	-0.7775921939050292	0.0	0.9382271430769342	-0.9103017020994504	0.0	0.9857579097090952	-0.9391900280106122	0.0	0.9731423110492388	-0.9432279674800932	0.0	0.9227048226395937	-0.9311828303463813	0.0	0.9257724290151911	-0.6590498703531021	0.0	0.9626964089831517	-0.7743938314903301	0.0	0.937353585526742	-0.9041864604336621	0.0	0.9834155338589294	-0.9296364698511865	0.0	0.9779207064184346	-0.9256408764799551	0.0	0.9170208142745475	-0.9240139252576232	0.0	0.9513492119910251	-0.4884414948033879	0.0	1.0032767596839562	-0.4117128734207447	0.0	1.0027416905915116	-0.4589244733899036	0.0	0.9420730491330574	-0.49619644625587417	0.0	0.8724673382727577	-0.5268651758803672	0.0	0.8426704335526591	-0.6004489212419852	0.0	0.9453778094943597	-0.4992981244001839	0.0	0.8997530480067453	-0.5479477335554267	0.0	0.8965073175880716	-0.6178066296460148	0.0
3	0.10075757575757577	0.9200287566777584	-0.6688201079035938	0.0	0.9173293794108726	-0.6654921169907472	0.0	0.974368112007214	-0.7815940793501069	0.0	0.9392909289254752	-0.913268419161622	0.0	0.9879584697053837	-0.9411581319658796	0.0	0.9754897109917022	-0.9454689234498306	0.0	0.9224842426509774	-0.9341305923461488	0.0	0.9224495526373985	-0.6653835493485899	0.0	0.9672689560638623	-0.7775926177650071	0.0	0.9380433452378869	-0.9074581992499751	0.0	0.9860164213265632	-0.9315868803331881	0.0	0.9793850046762658	-0.9279667826677396	0.0	0.9173277984267331	-0.9263918069296946	0.0	0.9524715679161174	-0.4964302193120684	0.0	1.0030269166600925	-0.4192802624751807	0.0	1.0044583942936405	-0.4665597310766823	0.0	0.9447600819058499	-0.504668302252013	0.0	0.8702195578363562	-0.5308555703351523	0.0	0.8299398566961695	-0.6016247254521712	0.0	0.9437269516710166	-0.5064038737269209	0.0	0.8933166965718293	-0.5544553178774472	0.0	0.8776832581711205	-0.6220335237666862	0.0
4	0.13434343434343435	0.9169227845308416	-0.6796654388381226	0.0	0.9150976022301363	-0.6763779355176053	0.0	0.9806473892280908	-0.7887597361286695	0.0	0.9401833370220931	-0.9192762816195542	0.0	0.9891544245583227	-0.9467922868670469	0.0	0.9769794709708244	-0.9514486565704556	0.0	0.9223853045147716	-0.9401626339136996	0.0	0.9188290699857379	-0.6760075528266806	0.0	0.972481040575041	-0.7840382635794838	0.0	0.9388300887592561	-0.913571825094684	0.0	0.9884603929390966	-0.9376888149198921	0.0	0.9809474533908327	-0.9347951678615999	0.0	0.9181990247539524	-0.932275261689789	0.0	0.9538760564757416	-0.5087116075503015	0.0	1.0032954832516212	-0.4315050182995894	0.0	1.006209957871533	-0.4784265054270693	0.0	0.9475332855614832	-0.5177953378877025	0.0	0.8688163876182883	-0.541676210694878	0.0	0.8205873761374933	-0.6105751541484562	0.0	0.9420765770165239	-0.5178254873154964	0.0	0.8865512944251617	-0.5659641162143096	0.0	0.8598944356361288	-0.6318795586818767	0.0
5	0.16792929292929293	0.9137033369871891	-0.695029635592176	0.0	0.9122018192295136	-0.6920401280007229	0.0	0.9861025041553286	-0.7996670893499636	0.0	0.9409295240941179	-0.9290589679129962	0.0	0.9895148024985206	-0.9567528572625094	0.0	0.9776731789574837	-0.9617505331804231	0.0	0.9224982722980523	-0.9498327021519497	0.0	0.9148561196626515	-0.6912517584924094	0.0	0.9779322094795478	-0.7945180691549929	0.0	0.9398119920424034	-0.9233031571642067	0.0	0.9905117371500904	-0.9486793729749788	0.0	0.9826939688747158	-0.9464839790059526	0.0	0.9193591367184697	-0.9422553013424573	0.0	0.955510032147104	-0.5255587611601082	0.0	1.003692774285953	-0.4487711350382015	0.0	1.0076287477421184	-0.4947823733470642	0.0	0.9500249535273185	-0.5360830685057903	0.0	0.8685920105760061	-0.5606678468954847	0.0	0.815978226457718	-0.6291523450960183	0.0	0.9408040300004051	-0.5340690546470297	0.0	0.8805357464061997	-0.5829311650903856	0.0	0.8457398055148164	-0.6482297656948289	0.0
6	0.20151515151515154	0.9105100558865561	-0.7150282836675699	0.0	0.9087772370922568	-0.7125119877241143	0.0	0.9903133520227752	-0.8148697096955795	0.0	0.9415406778733483	-0.9432825752690925	0.0	0.9892523051914205	-0.9713462769286969	0.0	0.9775975971345486	-0.976489179993675	0.0	0.9228695678108755	-0.9635939218049683	0.0	0.9109617816350702	-0.7111974808443438	0.0	0.983066231699587	-0.8097065990083377	0.0	0.9410107614528972	-0.9373679569424649	0.0	0.9921695770479556	-0.964714500269359	0.0	0.9846912844286416	-0.9626464496062812	0.0	0.920520844105958	-0.9566789623432618	0.0	0.9572703425744518	-0.546776424949042	0.0	1.003645604031985	-0.4708856551181525	0.0	1.0083767500400098	-0.5154293156781965	0.0	0.9517666295639139	-0.5594070827464579	0.0	0.8699760914575826	-0.5884536975305396	0.0	0.8172878299211025	-0.6582815335552862	0.0	0.9403615533440584	-0.5552716181706948	0.0	0.8768775740285905	-0.6059867831787565	0.0	0.838082464759972	-0.6719973480155508	0.0
7	0.23510101010101012	0.9076860122012936	-0.739629423671827	0.0	0.9052138206237286	-0.7376999345093461	0.0	0.9928824661184458	-0.8350964726111665	0.0	0.9419817125020622	-0.9624305782226084	0.0	0.9885167452969192	-0.9903535248538312	0.0	0.9767037899730229	-0.9952082621765967	0.0	0.9235026718395118	-0.9815848872391354	0.0	0.9081471779897976	-0.7358403629645889	0.0	0.9873426109950297	-0.8302269310289325	0.0	0.9424519382341753	-0.9562408925110427	0.0	0.9935621404820725	-0.9852696569809047	0.0	0.986865613554604	-0.9823082107942528	0.0	0.9216647960462785	-0.9754777914548198	0.0	0.9588244114983396	-0.5718753342776544	0.0	1.0024811135145295	-0.4971271739986447	0.0	1.0081283811236492	-0.5397643611715958	0.0	0.9522746806303277	-0.5870671788098264	0.0	0.873420158336613	-0.6245646557512522	0.0	0.8253642366420287	-0.6971528413357868	0.0	0.9409974036572466	-0.5811676709798392	0.0	0.8773509160650199	-0.6357178242650816	0.0	0.8402070830286696	-0.7034909079663542	0.0
8	0.2686868686868687	0.9056332223258935	-0.7685282127266678	0.0	0.9020766025601971	-0.7673425470590893	0.0	0.9935800873051981	-0.8610240759980463	0.0	0.9422642619754942	-0.9863996400475654	0.0	0.9873983503709464	-1.012730522003246	0.0	0.9749659162785329	-1.0166730637317911	0.0	0.9244490369605766	-1.0031341386723003	0.0	0.9073278044351077	-0.764978164628153	0.0	0.9903313402794837	-0.8563760232242164	0.0	0.9442610799480611	-0.9798140020692025	0.0	0.9947093711323416	-1.0090810716140137	0.0	0.9888827626498071	-1.004019237076884	0.0	0.9230160753867876	-0.9977784881320166	0.0	0.9595385925612534	-0.6000968195813341	0.0	0.9995448819782168	-0.5262600177041385	0.0	1.006518704397528	-0.5668335139252734	0.0	0.9511638586707442	-0.6179520415010286	0.0	0.8792926083866376	-0.6671079462259614	0.0	0.8409091448560608	-0.7427233225413086	0.0	0.9424574269024261	-0.6110301891425441	0.0	0.8832112913732274	-0.6717607845440123	0.0	0.8545419260694891	-0.7413195260418559	0.0
9	0.3022727272727273	0.9045236161033936	-0.8008034158717905	0.0	0.8998559486187986	-0.8006270247048951	0.0	0.9924531491253683	-0.8926219113089034	0.0	0.942540826083312	-1.0140197024163795	0.0	0.98599300350918	-1.0363882038804466	0.0	0.972609023917585	-1.038734955162266	0.0	0.9258637480415068	-1.0263784438100396	0.0	0.9085029725499395	-0.7978110124694588	0.0	0.991790503452547	-0.8876456408085087	0.0	0.9467329373738338	-1.0070683253730819	0.0	0.9954130438607723	-1.0342956220819042	0.0	0.9901542109438819	-1.025930883239942	0.0	0.9248914070867877	-1.0216795469097657	0.0	0.9586352655057518	-0.6302230484442448	0.0	0.9942338938814694	-0.5565641050204917	0.0	1.003135920376172	-0.5952864903482128	0.0	0.9482496794287016	-0.6505449945209743	0.0	0.8876498180230534	-0.7127352354327612	0.0	0.8643168931325294	-0.7898231349593806	0.0	0.9439702836501402	-0.6435220212710245	0.0	0.8944335211693091	-0.7119303000768451	0.0	0.8806680323405623	-0.7817077160137926	0.0
10	0.33585858585858586	0.9043126964398219	-0.8345833882059309	0.0	0.8987731297164061	-0.8356760553319905	0.0	0.9897492259322475	-0.928452312737078	0.0	0.9429159893868279	-1.042975260608117	0.0	0.9843184759565107	-1.0584387137128966	0.0	0.9700788237987641	-1.0586963880764557	0.0	0.9277819088304857	-1.0485234579326848	0.0	0.9109197626748055	-0.8324862872627182	0.0	0.9917417393266186	-0.9223796654366461	0.0	0.9502880219582303	-1.0360417766114502	0.0	0.9954217590865033	-1.058824232806013	0.0	0.990064537095838	-1.04597328149576	0.0	0.9275834666115069	-1.04455682507416	0.0	0.9554765881861564	-0.6603523955634436	0.0	0.9858733945993449	-0.5859354355462565	0.0	0.9974970993013962	-0.6232413582316974	0.0	0.9434797172348925	-0.682666738548285	0.0	0.897831363896779	-0.7568179123087493	0.0	0.8945446916945636	-0.831685749693745	0.0	0.9447075179987845	-0.6764812643193522	0.0	0.9096961004464057	-0.7522282314496334	0.0	0.9149101403119957	-0.8187941302728943	0.0
